# xmcd CD database file
# Copyright (C) 1993-1998 Ti Kan
# 
# Track frame offsets:
#     182
#     120657
#     206920
#     238070
# 
# Disc length: 4106 seconds
# 
# Revision: 1
# Processed by: cddbd v1.4b41PL1 Copyright (c) Steve Scherf et al.
# Submitted via: DiscPlay 4.0.4
# 
DISCID=36100804
DTITLE=Charles Mingus - Live In Chateauvallon, 1972
DYEAR=1900
DGENRE=
TTITLE0=Ellington Medley
TTITLE1=Fable Of Faubus
TTITLE2=Body And Soul
TTITLE3=Blues For Some Bones
EXTD=
EXTT0=
EXTT1=
EXTT2=
EXTT3=
PLAYORDER=
